<?xml version="1.0" encoding="utf-8"?>
<!-- Generator: Adobe Illustrator 16.0.0, SVG Export Plug-In . SVG Version: 6.00 Build 0)  -->
<!DOCTYPE svg PUBLIC "-//W3C//DTD SVG 1.1//EN" "http://www.w3.org/Graphics/SVG/1.1/DTD/svg11.dtd">
<svg version="1.1" id="Layer_1" xmlns="http://www.w3.org/2000/svg" xmlns:xlink="http://www.w3.org/1999/xlink" x="0px" y="0px"
	 width="583px" height="218.667px" viewBox="222.5 0 583 218.667" enable-background="new 222.5 0 583 218.667"
	 xml:space="preserve">
<g>
	<path fill="#FFFFFF" d="M251.953,191.597c-16.58-14.872-20.682-34.355-20.682-50.596c0-11.451,3.93-31.447,19.143-46.661
		c10.255-10.256,25.81-18.289,52.131-18.289c6.837,0,16.409,0.513,24.785,2.051c6.495,1.196,11.964,2.222,17.434,2.564
		c1.88,0.171,2.224,0.854,2.224,1.879c0,1.367-0.515,3.418-0.855,9.572c-0.342,5.641-0.342,15.041-0.514,17.606
		c-0.169,2.564-0.513,3.588-1.538,3.588c-1.196,0-1.367-1.195-1.367-3.588c0-6.667-2.735-13.675-7.178-17.436
		c-5.984-5.127-19.145-9.742-34.185-9.742c-22.733,0-33.331,6.667-39.313,12.479c-12.477,11.964-15.382,27.176-15.382,44.607
		c0,32.648,25.125,62.56,61.704,62.56c12.819,0,22.903-1.537,29.739-8.543c3.59-3.762,5.812-11.28,6.325-14.358
		c0.341-1.881,0.685-2.564,1.709-2.564c0.855,0,1.196,1.195,1.196,2.564c0,1.196-2.05,16.068-3.761,21.877
		c-1.024,3.248-1.368,3.592-4.444,4.957c-6.837,2.734-19.827,3.932-30.766,3.932C282.719,210.055,265.456,203.732,251.953,191.597z"
		/>
	<path fill="#FFFFFF" d="M372.642,184.419c0.343,14.016,2.053,18.457,6.667,19.824c3.247,0.856,7.009,1.026,8.547,1.026
		c0.854,0,1.367,0.342,1.367,1.024c0,1.026-1.025,1.367-3.076,1.367c-9.743,0-16.58-0.515-18.118-0.515
		c-1.537,0-8.718,0.515-16.408,0.515c-1.709,0-2.735-0.17-2.735-1.367c0-0.684,0.513-1.024,1.367-1.024
		c1.368,0,4.444-0.17,7.008-1.026c4.273-1.195,5.128-6.152,5.128-21.705l0.17-97.94c0-6.666,0.515-8.546,1.882-8.546
		s4.272,3.76,5.981,5.47c2.563,2.905,28.031,30.424,54.354,58.627c16.921,18.116,35.552,38.97,41.021,44.608l-1.879-86.828
		c-0.171-11.109-1.368-14.87-6.666-16.238c-3.078-0.683-7.008-0.854-8.375-0.854c-1.196,0-1.369-0.513-1.369-1.197
		c0-1.025,1.369-1.196,3.419-1.196c7.692,0,15.896,0.513,17.777,0.513c1.879,0,7.52-0.513,14.528-0.513
		c1.88,0,3.076,0.171,3.076,1.196c0,0.684-0.684,1.197-1.88,1.197c-0.854,0-2.052,0-4.104,0.512
		C474.684,82.547,474,86.307,474,96.563l-0.341,100.159c0,11.281-0.342,12.137-1.539,12.137c-1.367,0-3.417-1.881-12.479-10.938
		c-1.88-1.711-26.491-26.834-44.61-46.319c-19.827-21.365-39.142-42.902-44.611-49.056L372.642,184.419z"/>
	<path fill="#FFFFFF" d="M663.383,158.439c0,25.123,0.685,36.062,3.762,39.141c2.734,2.734,7.179,3.933,20.51,3.933
		c9.06,0,16.58-0.175,20.683-5.128c2.222-2.734,3.931-7.01,4.443-10.256c0.171-1.369,0.514-2.225,1.538-2.225
		c0.855,0,1.025,0.684,1.025,2.567c0,1.876-1.197,12.132-2.563,17.09c-1.195,3.933-1.707,4.614-10.769,4.614
		c-12.307,0-21.193-0.34-28.372-0.514c-7.18-0.34-12.478-0.514-17.435-0.514c-0.687,0-3.59,0.174-7.009,0.174
		c-3.419,0.172-7.179,0.34-9.743,0.34c-1.88,0-2.734-0.34-2.734-1.367c0-0.512,0.344-1.023,1.369-1.023
		c1.537,0,3.588-0.346,5.126-0.684c3.419-0.686,4.272-4.444,4.957-9.402c0.854-7.178,0.854-20.682,0.854-37.09v-30.082
		c0-26.664,0-31.45-0.342-36.92c-0.343-5.812-1.711-8.546-7.352-9.743c-1.366-0.341-4.271-0.512-5.811-0.512
		c-0.686,0-1.367-0.342-1.367-1.026c0-1.026,0.854-1.368,2.734-1.368c7.691,0,18.458,0.513,19.314,0.513
		c0.854,0,13.331-0.513,18.46-0.513c1.88,0,2.733,0.342,2.733,1.368c0,0.684-0.686,1.026-1.367,1.026
		c-1.195,0-3.59,0.171-5.642,0.512c-4.955,0.854-6.323,3.761-6.666,9.743c-0.342,5.47-0.342,10.256-0.342,36.92v30.426H663.383z"/>
	<path fill="#FFFFFF" d="M729.486,205.44c-2.393-1.196-2.563-1.879-2.563-6.493c0-8.548,0.686-15.385,0.854-18.119
		c0.171-1.881,0.513-2.734,1.367-2.734c1.024,0,1.195,0.514,1.195,1.881c0,1.538,0,3.931,0.514,6.324
		c2.562,12.648,13.847,17.435,25.298,17.435c16.406,0,24.439-11.794,24.439-22.733c0-11.793-4.955-18.629-19.656-30.765
		l-7.688-6.325c-18.119-14.869-22.222-25.468-22.222-37.09c0-18.289,13.676-30.766,35.382-30.766c6.667,0,11.622,0.684,15.896,1.708
		c3.246,0.684,4.613,0.855,5.981,0.855c1.367,0,1.707,0.342,1.707,1.197s-0.684,6.495-0.684,18.117c0,2.735-0.342,3.932-1.196,3.932
		c-1.025,0-1.195-0.854-1.366-2.222c-0.171-2.051-1.196-6.667-2.225-8.546c-1.023-1.88-5.639-9.059-21.363-9.059
		c-11.793,0-21.022,7.35-21.022,19.828c0,9.742,4.443,15.895,20.853,28.715l4.786,3.762c20.168,15.896,24.955,26.49,24.955,40.166
		c0,7.007-2.736,19.998-14.528,28.373c-7.352,5.125-16.579,7.178-25.811,7.178C744.356,210.055,736.496,208.859,729.486,205.44z"/>
	<g>
		<path fill="#FFFFFF" d="M562.407,181.562l11.06-31.475c-6.713,8.476-48.587,54.418-71.984,59.724h57.392
			C554.264,207.147,559.392,190.71,562.407,181.562z"/>
		<path fill="#FFFFFF" d="M580.619,183.433c-2.472,8.273,0.762,9.51,0.762,9.51l0.449,0.174l11.038-8.57l2.297,2.908l-14.216,11.604
			c0,0-9.851,8.639-16.118,10.754h55.838c2.918,0,5.282-2.361,5.282-5.279V83.6c0-2.918-2.364-5.282-5.282-5.282h-7.28
			c-3.276,8.893-6.448,18.209-9.47,27.487C592.869,139.768,583.665,173.225,580.619,183.433z"/>
		<path fill="#FFFFFF" d="M538.545,112.307c27.932-20.549,52.969-19.955,52.969-19.955c1.504-3.526,3.67-8.393,6.398-14.034h-98.174
			c-2.917,0-5.282,2.364-5.282,5.282v105.36C500.487,155.867,518.932,126.736,538.545,112.307z"/>
		<path fill="#FFFFFF" d="M675.341,8.988c-5.555-7.301-25.711-4.285-44.758,17.459c-13.884,15.851-25.332,36.692-32.671,51.871
			h15.477c9.728-26.392,20.373-49.042,30.687-55.836c0,0,5.271-4.502,13.171-1.879c8.091,2.688,13.97,5.526,13.97,5.526
			S680.896,16.288,675.341,8.988z"/>
		<path fill="#FFFFFF" d="M559.527,157.205c-24.172,30.178-39.908,38.442-44.458,37.121c-4.549-1.318,0-15.402,3.081-25.382
			c3.08-9.978,12.03-38.862,27.144-53.243c15.114-14.38,29.212-8.953,41.67-10.143C586.964,105.558,583.149,127.712,559.527,157.205
			z"/>
	</g>
</g>
</svg>
