<?xml version="1.0" encoding="utf-8"?>
<!-- Generator: Adobe Illustrator 16.0.0, SVG Export Plug-In . SVG Version: 6.00 Build 0)  -->
<!DOCTYPE svg PUBLIC "-//W3C//DTD SVG 1.1//EN" "http://www.w3.org/Graphics/SVG/1.1/DTD/svg11.dtd">
<svg version="1.1" id="Layer_1" xmlns="http://www.w3.org/2000/svg" xmlns:xlink="http://www.w3.org/1999/xlink" x="0px" y="0px"
	 width="1024px" height="218.667px" viewBox="0 0 1024 218.667" enable-background="new 0 0 1024 218.667" xml:space="preserve">
<path fill="#FFFFFF" d="M73.322,110.308c-0.935,4.562-3.622,12.214-5.365,16.103c-3.487,7.109-13.148,16.101-23.347,16.101
	c-12.478,0-17.307-6.172-17.307-12.611c0-4.698,2.548-8.318,7.245-8.318c4.964,0,5.767,4.159,5.767,5.636
	c0,1.61-0.536,3.891-1.204,4.559c-0.538,0.535-0.809,1.209-0.809,2.28c0,2.686,3.089,4.162,5.905,4.162
	c6.976,0,10.733-5.634,13.15-14.893c1.61-6.308,4.024-16.909,8.991-35.424l-0.808-0.268c-1.877,2.548-9.527,13.418-27.639,13.418
	c-18.518,0-31.128-13.017-31.128-36.229c0-17.308,7.915-31.934,17.844-41.996c7.515-7.515,19.187-15.696,37.837-15.696
	c13.957,0,21.067,4.559,23.75,6.705c1.742,1.343,2.952,1.61,3.621,1.61c1.613,0,2.417-1.34,3.224-4.293
	c0.132-0.67,0.536-0.804,1.204-0.67l2.014,0.537c0.536,0.133,0.935,0.402,0.801,1.072l-7.647,26.972
	c-0.265,0.804-0.536,0.938-1.475,0.804l-2.146-0.271c-0.669-0.133-1.072-0.533-0.941-1.338C87.144,26.719,80.57,12.63,63.125,12.63
	c-8.587,0-18.248,2.952-27.639,15.295c-7.782,9.795-12.211,24.288-12.211,40.521c0,22.004,13.554,25.494,19.456,25.494
	c16.104,0,23.882-13.82,24.419-21.736c0.405-5.1-1.071-6.172-4.695-6.172h-4.697c-1.072,0-1.206-0.405-0.938-1.343l0.537-2.953
	c0.134-0.804,0.4-1.072,1.477-1.072c2.01,0,6.707,0.402,18.513,0.402c9.124,0,12.346-0.402,14.225-0.402
	c0.936,0,1.34,0.402,1.208,1.072l-0.405,3.223c-0.131,0.805-0.402,1.073-1.206,1.073h-2.817c-2.55,0-4.425,1.072-6.172,8.183
	L73.322,110.308z"/>
<path fill="#FFFFFF" d="M174.696,75.96c0.267,0.267,0.53,0.537,0.267,1.475l-6.979,19.591c-0.536,2.146-1.339,2.415-2.949,2.415
	c-1.076,0-6.578-0.134-14.227-0.268c-7.646-0.134-17.307-0.134-26.564-0.134H106.8c-4.159,0-8.052,0.134-11.136,0.134
	c-2.954,0.134-5.1,0.268-5.902,0.268c-0.673,0-0.941-0.268-0.806-1.073l0.536-3.489c0.132-0.536,0.403-0.805,0.939-0.805h4.296
	c5.365,0,8.046-2.681,9.389-7.112l20.532-63.73c2.277-7.247-2.552-9.124-6.58-9.124h-4.292c-0.67,0-1.072-0.536-0.804-1.343
	l0.804-2.953c0.267-0.804,0.536-1.07,1.609-1.07c0.807,0,4.025,0.132,7.783,0.132c3.889,0.134,8.318,0.27,11.537,0.27h9.664
	c9.659,0,17.038,0,22.406-0.135c5.365-0.134,8.586-0.267,10.063-0.267c2.146,0,2.416,0.536,2.952,2.683l4.027,17.979
	c0.265,0.939,0.265,0.939-0.536,1.475l-1.615,0.805c-0.532,0.268-0.803,0-1.609-0.805l-13.686-15.833
	c-0.805-0.805-1.609-1.073-2.415-1.073h-20.93l-11.271,34.75h11.538c5.77,0,11.004-0.671,15.833-11.135
	c0.267-0.536,0.537-0.805,1.073-0.805l2.416,0.805c0.536,0,0.803,0.538,0.536,0.805c-2.148,5.099-6.44,21.735-6.978,26.834
	c-0.267,0.807-0.537,0.807-1.073,0.807h-2.416c-0.802-0.268-0.802-0.538-0.802-1.343c0-9.66-5.103-11.138-14.762-11.138h-6.708
	l-13.148,40.655h30.054c4.565,0,8.319-2.01,11.809-5.096c2.952-2.417,10.197-11.541,12.344-13.957
	c0.27-0.536,0.807-0.805,1.607-0.268L174.696,75.96z"/>
<path fill="#FFFFFF" d="M536.855,75.96c0.268,0.267,0.529,0.537,0.268,1.475l-6.979,19.591c-0.537,2.146-1.34,2.415-2.947,2.415
	c-1.078,0-6.58-0.134-14.228-0.268c-7.647-0.134-17.307-0.134-26.564-0.134h-17.443c-4.159,0-8.052,0.134-11.137,0.134
	c-2.953,0.134-5.1,0.268-5.902,0.268c-0.673,0-0.94-0.268-0.805-1.073l0.536-3.489c0.133-0.536,0.403-0.805,0.939-0.805h4.296
	c5.365,0,8.046-2.681,9.389-7.112l20.532-63.73c2.278-7.247-2.551-9.124-6.579-9.124h-4.292c-0.67,0-1.071-0.536-0.804-1.343
	l0.804-2.953c0.267-0.804,0.536-1.07,1.609-1.07c0.807,0,4.025,0.132,7.784,0.132c3.888,0.134,8.318,0.27,11.537,0.27h9.664
	c9.662,0,17.039,0,22.406-0.135c5.365-0.134,8.588-0.267,10.064-0.267c2.146,0,2.414,0.536,2.949,2.683l4.029,17.979
	c0.264,0.939,0.264,0.939-0.537,1.475l-1.615,0.805c-0.531,0.268-0.801,0-1.607-0.805l-13.688-15.833
	c-0.807-0.805-1.609-1.073-2.414-1.073h-20.93l-11.27,34.75h11.539c5.77,0,11.003-0.671,15.832-11.135
	c0.27-0.536,0.537-0.805,1.072-0.805l2.418,0.805c0.535,0,0.805,0.538,0.535,0.805c-2.148,5.099-6.439,21.735-6.979,26.834
	c-0.264,0.807-0.535,0.807-1.07,0.807h-2.416c-0.803-0.268-0.803-0.538-0.803-1.343c0-9.66-5.103-11.138-14.763-11.138h-6.708
	l-13.149,40.655h30.054c4.566,0,8.32-2.01,11.808-5.096c2.955-2.417,10.197-11.541,12.344-13.957
	c0.27-0.536,0.807-0.805,1.609-0.268L536.855,75.96z"/>
<path fill="#FFFFFF" d="M274.211,46.307c0,26.834-19.053,54.745-49.377,54.745c-5.365,0-15.833-0.806-24.148-8.854
	c-8.321-8.052-11.81-18.786-11.81-30.86c0-27.91,20.393-54.206,48.84-54.206C259.184,7.131,274.211,21.622,274.211,46.307z
	 M221.616,23.498c-11.004,12.345-19.053,32.203-19.053,46.962c0,16.637,8.857,24.419,19.856,24.419
	c19.59,0,37.033-30.055,37.3-59.037c0-13.416-6.708-22.271-18.784-22.271C232.886,13.571,226.448,17.864,221.616,23.498z"/>
<path fill="#FFFFFF" d="M299.663,84.414c-2.283,7.245-0.807,9.66,2.95,9.66h5.636c0.807,0,1.073,0.537,0.807,1.076l-0.271,3.218
	c-0.268,0.805-0.805,1.073-1.609,1.073c-1.609,0-7.513-0.402-19.054-0.402c-9.393,0-14.492,0.402-16.1,0.402
	c-0.808,0-1.074-0.538-0.808-1.343l0.541-2.949c0-0.807,0.267-1.076,1.339-1.076h3.492c3.218,0,5.632-2.952,6.704-6.305
	l21.47-66.953c1.343-4.296,0.539-6.709-4.023-6.709h-4.562c-1.074,0-1.341-0.271-1.074-1.076l0.537-2.813
	c0.266-0.808,0.537-1.075,1.876-1.075c13.956,0,27.91-0.402,31.666-0.402c11.54,0,31.667,0.938,31.667,19.453
	c0,13.151-14.222,23.883-31.667,25.762v0.538c4.296,1.073,6.443,5.1,7.785,7.782c0.807,1.343,9.925,20.394,12.209,24.016
	c3.622,5.636,6.845,7.783,11.672,7.783h3.489c0.802,0,1.073,0.537,0.802,1.341l-0.268,2.684c-0.268,0.805-0.535,1.343-1.343,1.343
	c-1.339,0-3.488-0.402-10.731-0.402c-7.781,0-10.198,0.402-12.347,0.402c-1.34,0-1.875-1.343-3.756-4.428
	c-1.875-3.22-13.685-29.518-15.295-32.738c-3.219-7.38-9.124-6.575-12.746-6.575L299.663,84.414z M310.127,51.004
	c5.366,0,12.344,0.537,21.466-3.219c6.98-2.953,13.15-10.468,13.15-20.126c0-5.637-4.025-14.357-17.174-14.357
	c-2.415,0-4.025,0-5.635,0.27L310.127,51.004z"/>
<path fill="#FFFFFF" d="M429.608,73.278c1.071-5.368-1.072-6.44-4.833-6.44h-4.429c-1.069,0-1.338-0.671-1.206-1.477l0.54-2.819
	c0.135-0.805,0.533-1.072,1.341-1.072c2.144,0,6.707,0.403,17.706,0.403c10.736,0,13.96-0.403,15.836-0.403
	c0.807,0,1.21,0.537,1.076,1.609l-0.269,2.685c-0.134,0.802-0.539,1.073-1.343,1.073h-2.143c-3.223,0-5.64,1.072-6.445,4.561
	l-4.557,20.528c-0.405,1.61-1.075,2.146-2.684,2.952c-3.763,1.611-15.298,6.173-26.839,6.173c-24.954,0-39.982-16.906-39.982-36.495
	c0-32.474,26.298-57.426,56.351-57.426c11.54,0,19.054,4.559,21.735,6.705c1.615,1.343,2.687,1.61,3.224,1.61
	c1.609,0,2.414-1.34,3.754-4.293c0-0.537,0.536-0.804,1.34-0.537l1.884,0.537c0.531,0,0.801,0.27,0.801,1.073l-7.779,26.838
	c-0.267,0.804-0.538,1.072-1.343,0.804h-2.683c-0.807,0-1.073-0.537-0.807-1.609c1.608-11.541-4.022-25.629-21.201-25.629
	c-20.659,0-38.375,24.821-38.375,53.402c0,20.662,12.346,29.117,22.543,29.117c6.709,0,11.271-1.746,13.149-3.086
	c1.344-0.807,2.145-2.687,2.683-4.832L429.608,73.278z"/>
<path fill="#FFFFFF" d="M619.42,9.143c12.078,0,16.908-1.076,19.32-2.416c0.535-0.271,0.809-0.536,1.342-0.536
	c0.537,0,1.078,0.265,1.078,1.073c-0.273,2.145-1.611,21.735-1.344,27.102c0,0.805-0.268,1.073-1.076,1.21l-2.146,0.4
	c-0.805,0-1.338-0.537-1.873-2.145c-1.078-4.294-3.496-12.613-5.371-16.104c-2.953-2.281-12.605-3.488-18.783-3.488h-2.686
	l-21.197,68.43c-2.686,8.452-1.344,11.404,5.639,11.404h5.361c0.674,0,0.938,0.537,0.805,1.341l-0.537,2.684
	c-0.137,0.941-0.672,1.343-1.613,1.343c-1.875,0-7.242-0.402-19.855-0.402c-13.146,0-20.26,0.402-21.602,0.402
	c-0.938,0-1.34-0.538-1.203-1.343l0.266-2.949c0.133-0.807,0.533-1.076,1.609-1.076h3.484c7.52,0,10.068-3.487,13.152-13.551
	l20.666-66.283h-3.492c-12.342,0-18.25,0.673-21.33,2.953c-4.697,3.488-11.676,11.271-14.896,15.026
	c-0.537,0.536-1.072,0.536-1.613,0.536l-2.145-1.341c-0.533-0.267-0.533-0.805-0.268-1.34c1.609-2.952,9.926-21.736,10.197-22.543
	c0.27-0.804,0.537-1.34,1.34-1.34c0.537,0,1.076,0.265,2.15,1.073c2.682,0.802,9.123,1.878,23.078,1.878H619.42z"/>
<path fill="#FFFFFF" d="M726.496,46.307c0,26.834-19.055,54.745-49.375,54.745c-5.367,0-15.836-0.806-24.154-8.854
	c-8.318-8.052-11.807-18.786-11.807-30.86c0-27.91,20.396-54.206,48.838-54.206C711.467,7.131,726.496,21.622,726.496,46.307z
	 M673.9,23.498c-11.004,12.345-19.055,32.203-19.055,46.962c0,16.637,8.855,24.419,19.857,24.419
	c19.588,0,37.035-30.055,37.303-59.037c0-13.416-6.711-22.271-18.787-22.271C685.168,13.571,678.729,17.864,673.9,23.498z"/>
<path fill="#FFFFFF" d="M756.516,75.692c-0.266,1.61,0.807,2.148,2.148,0.535c0.801-0.804,30.596-43.737,31.133-44.544
	c3.215-4.831,4.826-10.197,4.826-13.015c0-2.684-1.072-4.562-3.484-4.562h-1.879c-0.809,0-1.074-0.271-1.074-0.94l0.533-3.622
	c0.271-0.537,0.541-0.804,1.607-0.804c1.346,0,4.832,0.402,13.154,0.402c7.781,0,11.268-0.402,12.879-0.402
	c1.074,0,1.346,0.267,1.205,1.07l-0.398,3.22c-0.266,0.806-0.541,1.076-1.607,1.076h-2.15c-2.414,0-3.756,1.611-4.293,6.305
	l-6.709,55.815c-0.266,2.417,0.541,2.687,1.875,1.076c2.686-2.953,15.838-24.688,18.516-29.252
	c6.447-10.733,12.344-23.343,13.555-26.968c1.209-3.487,0.941-6.976-3.088-6.976h-2.141c-0.812,0-1.346-0.271-1.078-1.208
	l0.533-2.816c0-1.075,0.545-1.341,1.35-1.341c1.873,0,5.096,0.402,12.072,0.402c8.053,0,11.547-0.402,13.416-0.402
	c1.076,0,1.479,0.267,1.348,0.938l-0.539,3.352c-0.268,0.806-0.541,1.076-1.078,1.076h-2.416c-2.41,0-4.83,0.806-6.973,3.621
	c-1.344,1.878-21.469,35.155-24.686,40.523c-3.762,6.173-21.336,32.067-27.104,39.177c-1.75,2.148-3.359,4.295-5.502,4.295
	c-2.146,0-2.684-1.879-2.418-4.829l3.891-56.353c0.266-1.612-0.801-1.612-1.877-0.269c-1.344,1.878-37.57,52.19-42.535,57.964
	c-1.609,1.877-2.951,3.487-5.098,3.487c-1.74,0-2.418-1.879-1.877-5.635l9.521-75.005c0.539-4.562,0-6.976-2.947-6.976h-3.221
	c-1.078,0-1.344-0.271-1.209-1.208l0.398-3.087c0.273-0.804,0.539-1.07,1.615-1.07c1.342,0,6.713,0.402,15.564,0.402
	c8.314,0,13.414-0.402,15.025-0.402c1.342,0,1.611,0.267,1.342,1.205l-0.533,3.085c0,0.541-0.264,1.076-1.348,1.076h-2.141
	c-4.299,0-6.172,1.611-7.113,7.111L756.516,75.692z"/>
<path fill="#FFFFFF" d="M828.102,85.623c0-7.248,4.695-11.004,8.316-11.004c3.488,0,6.576,1.879,6.576,6.443
	c0,3.888-3.758,5.767-4.426,8.72c-0.537,2.549,1.475,5.5,8.988,5.5c12.881,0,23.748-10.197,29.654-18.248
	c9.523-13.283,20.125-42.535,20.125-55.816c0-3.087-1.609-4.025-4.561-4.025c-8.189,0-15.836-0.135-23.486,2.281
	c-5.494,1.609-10.73,5.234-10.73,8.452c0,1.611,0.945,4.564,3.758,5.367c4.156,0.673,6.037,3.086,6.037,6.039
	s-2.549,5.769-6.713,5.769c-4.695,0-8.713-5.097-8.713-11.538c0-6.843,2.945-14.088,9.254-18.649
	c9.664-6.846,23.076-5.77,47.229-5.77c2.551,0,3.354,0.939,3.891,3.084c4.564,20.528,17.039,54.877,24.291,66.551
	c0.934,1.611,1.607,0.402,2.143-2.146c5.902-26.565,14.488-52.463,29.385-63.867c6.842-5.369,13.283-6.708,18.789-6.708
	c8.049,0,11.803,4.694,11.803,9.123c0,3.758-3.221,6.709-6.574,6.709c-2.818,0-4.828-2.146-5.906-3.757
	c-0.668-1.611-2.953-3.086-4.828-3.086c-2.553,0-5.234,0.538-9.531,3.624c-9.254,6.71-19.721,20.93-28.307,59.439
	c-2.146,9.794,0.133,12.613,1.477,14.894c6.844,11.672,26.438,36.496,49.779,36.496c6.844,0,11.674-2.95,12.744-7.38
	c1.344-5.904,3.086-8.587,5.768-8.587c2.959,0,3.895,2.549,3.895,4.562c0,1.744-1.611,5.77-4.023,8.318
	c-2.289,2.549-9.395,10.062-24.82,10.062c-27.238,0-44.818-21.603-52.738-32.066c-15.156-19.993-27.369-49.646-33.943-76.213
	c-0.268-1.206-1.072-1.341-1.477,0.805c-3.088,17.042-8.854,34.484-15.695,46.156c-6.979,12.347-19.057,27.373-38.645,27.373
	C837.357,102.527,828.102,96.624,828.102,85.623z"/>
<path fill="#FFFFFF" d="M120.378,136.058c1.812-5.841,0-8.042-3.505-8.042h-4.667c-0.649,0-1.036-0.26-0.906-1.037l0.646-3.111
	c0.131-0.777,0.391-1.039,1.688-1.039c1.555,0,6.091,0.391,17.762,0.391c10.505,0,14.914-0.391,16.21-0.391
	c1.032,0,1.296,0.391,1.168,1.299l-0.52,2.852c-0.131,0.651-0.519,1.037-1.299,1.037h-3.629c-2.334,0-5.838,0.521-7.779,7.002
	l-10.634,34.619c-0.777,2.853-3.76,12.447-3.76,18.283c0,15.69,13.748,17.375,17.504,17.375c6.225,0,12.836-2.335,16.986-5.835
	c6.093-5.057,10.371-12.057,14.391-26.451l9.467-33.191c2.465-8.56,1.038-11.802-3.109-11.802h-4.152
	c-1.169,0-1.296-0.386-1.169-1.037l0.52-2.852c0.133-0.908,0.389-1.299,1.561-1.299c1.553,0,6.48,0.391,14.778,0.391
	c7.519,0,10.502-0.391,11.798-0.391c1.172,0,1.299,0.391,1.172,1.299l-0.394,2.852c-0.13,0.651-0.387,1.037-1.425,1.037h-1.944
	c-4.151,0-6.872,3.891-8.817,10.246l-11.15,35.654c-7.001,23.08-17.375,38.122-41.365,38.122c-16.725,0-29.3-7.651-29.3-23.729
	c0-5.447,1.944-13.486,2.721-16.205L120.378,136.058z"/>
<path fill="#FFFFFF" d="M224.759,140.854c-0.778-1.296-1.816-1.296-2.076,0.26l-12.968,43.307
	c-4.408,14.782-3.892,20.875,1.557,20.875h4.929c1.035,0,1.297,0.52,1.297,1.296l-0.522,2.724c-0.257,0.908-0.257,1.165-1.555,1.165
	c-1.294,0-6.746-0.388-15.562-0.388c-9.073,0-13.226,0.388-14.78,0.388c-0.779,0-1.036-0.517-0.907-1.425l0.391-2.727
	c0.26-0.514,0.517-1.033,1.293-1.033h2.858c5.962,0,9.073-4.408,12.964-15.947l15.82-50.053c2.458-7.651-0.262-11.279-5.707-11.279
	h-4.928c-1.041,0-1.296-0.518-1.041-1.557l0.523-2.332c0.256-0.779,0.517-1.299,1.556-1.299c1.555,0,6.742,0.391,22.042,0.391
	c2.334,0,3.11,1.557,3.889,3.371l28.785,59.902c1.038,1.554,1.556,1.297,2.592-1.812l13.744-42.01
	c3.373-10.506,2.335-14.654-2.071-14.654h-3.891c-1.299,0-1.556-0.26-1.299-1.294l0.26-2.854c0.264-0.52,0.522-1.039,1.3-1.039
	c1.555,0,5.702,0.391,14.779,0.391c6.744,0,9.337-0.391,11.153-0.391c1.295,0,1.55,0.779,1.295,1.818l-0.519,2.332
	c0,0.777-0.257,1.037-1.038,1.037h-3.368c-3.113,0-5.707,3.114-8.303,10.503l-23.857,68.204c-0.777,2.072-1.812,3.111-2.593,3.369
	c-1.293,0-2.592-0.777-3.37-2.593L224.759,140.854z"/>
<path fill="#FFFFFF" d="M317.08,136.575c1.816-6.483-0.26-8.559-3.63-8.559h-5.964c-1.041,0-1.299-0.26-1.299-1.037l0.782-3.371
	c0-0.518,0.517-0.779,1.553-0.779c1.556,0,8.558,0.391,18.929,0.391c11.152,0,16.6-0.391,18.413-0.391
	c1.297,0,1.817,0.52,1.556,1.559l-0.775,2.592c0,0.52-0.261,1.037-1.299,1.037h-3.372c-5.442,0-8.426,1.299-10.37,8.689
	l-16.08,59.773c-1.688,6.225,0.258,8.816,5.702,8.816h4.669c0.778,0,1.038,0.52,0.778,1.296l-0.258,2.593
	c-0.257,1.039-0.257,1.296-1.554,1.296c-1.558,0-7.521-0.388-20.747-0.388c-10.893,0-17.631,0.388-19.189,0.388
	c-0.776,0-1.038-0.517-1.038-1.296l0.774-2.855c0-0.776,0.264-1.033,1.041-1.033h4.929c7.522,0,8.298-2.592,10.113-9.207
	L317.08,136.575z"/>
<path fill="#FFFFFF" d="M406.029,138.779c4.667-6.227,5.185-10.763,1.554-10.763h-2.595c-1.297,0-1.556-0.518-1.428-1.294
	l0.652-2.854c0-0.777,0.261-1.039,1.554-1.039c1.816,0,6.226,0.391,13.227,0.391c7.52,0,10.896-0.391,12.449-0.391
	c1.295,0,1.556,0.52,1.427,1.17l-0.391,2.724c-0.262,0.776-0.521,1.294-1.296,1.294h-2.851c-4.411,0-11.027,6.486-16.079,12.838
	l-55.364,69.5c-0.782,1.034-2.334,2.33-4.15,2.33c-2.077,0-2.339-1.815-1.82-4.925l10.249-72.741
	c0.516-3.888-0.782-7.002-4.933-7.002h-4.147c-1.036,0-1.555-0.26-1.299-1.166l0.779-2.723c0.259-1.037,0.259-1.299,1.299-1.299
	c1.813,0,7.259,0.391,18.41,0.391c9.338,0,14.78-0.391,16.339-0.391c1.295,0,1.556,0.262,1.295,1.17l-0.387,2.98
	c-0.128,0.777-0.39,1.037-1.426,1.037h-3.631c-4.147,0-6.483,1.556-7.131,5.318l-8.946,51.862c-0.521,3.374,1.035,3.632,2.853,1.296
	L406.029,138.779z"/>
<path fill="#FFFFFF" d="M495.239,187.79c0.257,0.257,0.517,0.52,0.257,1.427l-6.739,18.934c-0.519,2.073-1.299,2.33-2.854,2.33
	c-1.041,0-6.35-0.126-13.744-0.257c-7.39-0.131-16.728-0.131-25.675-0.131h-16.854c-4.02,0-7.778,0.131-10.762,0.131
	c-2.852,0.131-4.929,0.257-5.705,0.257c-0.647,0-0.91-0.257-0.781-1.036l0.525-3.372c0.127-0.52,0.39-0.776,0.903-0.776h4.152
	c5.181,0,7.777-2.592,9.073-6.875l19.84-61.589c2.203-7-2.466-8.815-6.355-8.815h-4.151c-0.645,0-1.032-0.518-0.775-1.294
	l0.775-2.854c0.262-0.777,0.521-1.039,1.559-1.039c0.777,0,3.887,0.131,7.52,0.131c3.76,0.131,8.041,0.26,11.151,0.26h9.334
	c9.338,0,16.469,0,21.653-0.129c5.188-0.131,8.298-0.262,9.725-0.262c2.077,0,2.334,0.52,2.852,2.598l3.892,17.375
	c0.26,0.904,0.26,0.904-0.519,1.425l-1.557,0.779c-0.516,0.257-0.775,0-1.555-0.779l-13.227-15.3
	c-0.779-0.782-1.553-1.039-2.336-1.039h-20.222l-10.894,33.58h11.151c5.577,0,10.632-0.646,15.298-10.758
	c0.261-0.52,0.52-0.777,1.042-0.777l2.331,0.777c0.521,0,0.778,0.517,0.521,0.776c-2.081,4.928-6.229,21.004-6.748,25.932
	c-0.257,0.779-0.514,0.779-1.032,0.779h-2.334c-0.78-0.26-0.78-0.52-0.78-1.299c0-9.333-4.928-10.761-14.262-10.761h-6.486
	l-12.703,39.287h29.043c4.408,0,8.041-1.944,11.408-4.925c2.854-2.336,9.858-11.151,11.934-13.487
	c0.256-0.52,0.778-0.779,1.552-0.26L495.239,187.79z"/>
<path fill="#FFFFFF" d="M527.266,195.959c-2.201,7.001-0.775,9.336,2.852,9.336h5.449c0.777,0,1.037,0.52,0.777,1.033l-0.258,3.115
	c-0.26,0.779-0.781,1.036-1.561,1.036c-1.553,0-7.26-0.388-18.408-0.388c-9.077,0-14.008,0.388-15.56,0.388
	c-0.778,0-1.039-0.517-0.778-1.296l0.517-2.855c0-0.776,0.261-1.033,1.299-1.033h3.368c3.114,0,5.45-2.854,6.486-6.093l20.745-64.7
	c1.299-4.154,0.521-6.486-3.887-6.486h-4.408c-1.041,0-1.301-0.26-1.041-1.037l0.516-2.723c0.266-0.777,0.525-1.037,1.818-1.037
	c13.486,0,26.971-0.391,30.602-0.391c11.158,0,30.598,0.91,30.598,18.803c0,12.709-13.746,23.078-30.598,24.895v0.52
	c4.146,1.039,6.227,4.928,7.521,7.52c0.773,1.299,9.596,19.711,11.797,23.211c3.5,5.447,6.613,7.52,11.279,7.52h3.369
	c0.781,0,1.041,0.52,0.781,1.296l-0.254,2.593c-0.262,0.779-0.527,1.296-1.299,1.296c-1.297,0-3.371-0.388-10.377-0.388
	c-7.516,0-9.854,0.388-11.928,0.388c-1.291,0-1.816-1.296-3.633-4.276c-1.811-3.112-13.223-28.526-14.777-31.639
	c-3.111-7.131-8.818-6.355-12.32-6.355L527.266,195.959z M537.379,163.673c5.191,0,11.934,0.517,20.75-3.111
	c6.738-2.853,12.705-10.115,12.705-19.448c0-5.447-3.883-13.877-16.6-13.877c-2.328,0-3.887,0-5.445,0.262L537.379,163.673z"/>
<path fill="#FFFFFF" d="M655.637,148.502c-0.26,0.52-0.518,0.779-1.033,0.779h-2.336c-1.043,0-1.299-0.52-1.299-1.296
	c0.781-5.185-0.773-20.749-14.01-20.749c-7.514,0-11.66,7.002-11.66,12.581c0,9.075,5.703,13.222,11.66,19.188
	c5.973,5.967,14.529,13.224,14.529,27.618c0,16.599-11.928,25.414-25.414,25.414c-8.295,0-14.258-4.928-18.406-9.598
	c-1.303-1.296-2.602-1.034-3.373-0.257c-0.779,1.039-2.078,3.111-3.107,4.927c-0.266,0.52-0.529,0.777-1.305,0.52l-1.553-0.781
	c-0.777-0.258-0.777-0.258-0.523-1.297l9.596-28.264c0.266-0.52,0.521-0.52,1.299-0.52l2.076,0.52
	c0.516,0.257,0.775,0.52,0.775,1.296c-3.629,18.672,6.486,27.487,14.521,27.487c8.301,0,14.006-6.48,14.006-13.614
	c0-8.3-6.484-13.225-12.193-19.448c-8.037-8.819-14.777-15.557-14.777-28.912c0-9.339,7.26-22.822,24.115-22.822
	c7,0,13.227,4.408,15.299,5.962c0.518,0.262,1.043,0.52,1.816,0.52c0.779,0,1.553-1.816,2.082-4.408c0-0.52,0.254-0.52,1.293-0.52
	l1.555,0.262c0.775,0,1.035,0.258,1.035,0.777L655.637,148.502z"/>
<path fill="#FFFFFF" d="M688.576,136.575c1.811-6.483-0.262-8.559-3.635-8.559h-5.967c-1.031,0-1.299-0.26-1.299-1.037l0.783-3.371
	c0-0.518,0.516-0.779,1.559-0.779c1.553,0,8.559,0.391,18.928,0.391c11.15,0,16.598-0.391,18.408-0.391
	c1.303,0,1.818,0.52,1.562,1.559l-0.783,2.592c0,0.52-0.254,1.037-1.295,1.037h-3.369c-5.447,0-8.426,1.299-10.375,8.689
	l-16.076,59.773c-1.688,6.225,0.26,8.816,5.703,8.816h4.672c0.773,0,1.033,0.52,0.773,1.296l-0.258,2.593
	c-0.25,1.039-0.25,1.296-1.561,1.296c-1.551,0-7.514-0.388-20.742-0.388c-10.896,0-17.635,0.388-19.184,0.388
	c-0.785,0-1.045-0.517-1.045-1.296l0.781-2.855c0-0.776,0.264-1.033,1.043-1.033h4.924c7.518,0,8.293-2.592,10.113-9.207
	L688.576,136.575z"/>
<path fill="#FFFFFF" d="M786.338,123.219c11.674,0,16.338-1.036,18.67-2.335c0.52-0.26,0.779-0.517,1.295-0.517
	c0.523,0,1.041,0.257,1.041,1.036c-0.258,2.075-1.557,21.007-1.297,26.19c0,0.779-0.26,1.039-1.039,1.168l-2.074,0.389
	c-0.777,0-1.297-0.518-1.811-2.073c-1.039-4.151-3.371-12.188-5.188-15.56c-2.855-2.203-12.191-3.374-18.154-3.374h-2.596
	l-20.486,66.132c-2.592,8.165-1.293,11.02,5.447,11.02h5.188c0.648,0,0.902,0.52,0.775,1.296l-0.514,2.593
	c-0.133,0.908-0.648,1.296-1.555,1.296c-1.818,0-7.004-0.388-19.197-0.388c-12.709,0-19.574,0.388-20.869,0.388
	c-0.914,0-1.299-0.517-1.17-1.296l0.256-2.855c0.129-0.776,0.523-1.033,1.557-1.033h3.371c7.258,0,9.727-3.374,12.711-13.096
	l19.965-64.056h-3.369c-11.934,0-17.639,0.651-20.621,2.854c-4.539,3.372-11.275,10.895-14.387,14.521
	c-0.525,0.52-1.037,0.52-1.553,0.52l-2.078-1.296c-0.523-0.257-0.523-0.779-0.264-1.297c1.559-2.852,9.596-21.003,9.859-21.782
	c0.26-0.779,0.516-1.296,1.299-1.296c0.516,0,1.029,0.257,2.072,1.036c2.592,0.779,8.812,1.815,22.303,1.815H786.338z"/>
<path fill="#FFFFFF" d="M847.021,198.033c-1.424,6.743,0.26,7.263,4.666,7.263h2.852c0.781,0,1.041,0.52,1.041,1.033l-0.52,2.855
	c0,0.779-0.262,1.296-1.293,1.296c-2.08,0-6.229-0.388-16.596-0.388c-11.676,0-15.564,0.388-17.117,0.388
	c-0.783,0-1.039-0.257-1.039-1.296l0.516-2.855c0-0.514,0.26-1.033,1.293-1.033h2.855c5.965,0,7.785-2.854,8.562-6.612l4.143-19.19
	c0.521-1.815,0.262-5.185-0.258-6.743l-13.486-39.804c-1.033-3.114-3.625-4.93-8.033-4.93h-2.855c-0.773,0-1.039-0.26-1.039-1.037
	l0.527-3.111c0.254-0.777,0.512-1.039,1.291-1.039c1.816,0,5.184,0.391,15.559,0.391c11.152,0,15.562-0.391,17.119-0.391
	c1.035,0,1.293,0.262,1.293,1.039l-0.258,3.111c-0.26,0.777-0.521,1.037-1.299,1.037h-3.369c-4.146,0-4.146,3.114-3.373,5.707
	l10.371,34.875c0.52,2.078,1.559,2.078,2.596,0.263c1.816-2.854,20.227-30.082,21.523-33.971c1.691-4.931,0-6.874-4.406-6.874
	h-2.852c-0.777,0-1.039-0.518-0.777-1.294l0.256-2.854c0-0.777,0.262-1.039,1.553-1.039c1.82,0,6.748,0.391,14.008,0.391
	c8.037,0,11.93-0.391,13.742-0.391c1.039,0,1.299,0.52,1.299,1.299l-0.52,2.595c0,1.034-0.26,1.294-1.039,1.294h-2.336
	c-4.404,0-6.998,2.075-9.59,5.575c-2.072,2.854-25.678,35.789-27.492,38.898c-1.809,2.853-3.111,5.447-4.406,11.151L847.021,198.033
	z"/>
</svg>
