<?xml-stylesheet type="text/css" href="svg.css" ?>
<!-- Generator: Adobe Illustrator 18.1.1, SVG Export Plug-In . SVG Version: 6.00 Build 0)  -->
<svg version="1.1" id="Layer_1" xmlns="http://www.w3.org/2000/svg" xmlns:xlink="http://www.w3.org/1999/xlink" x="0px" y="0px"
	 viewBox="0 0 821 360" enable-background="new 0 0 821 360" xml:space="preserve">
<g>
	<polygon class="lev_bg" points="544.6,0 0,0 0,360 471.3,360"/>
	<polygon class="l_bg" points="591.4,0 518.1,360 821,360 821,0"/>
</g>
<path fill="#FFFFFF" d="M75.2,298.6V61.9h28.6v211h62.8v25.6H75.2z"/>
<path fill="#FFFFFF" d="M195.2,298.6V61.9h91.4v25.6h-62.8V167H278v25.6h-54.2V273h62.8v25.6H195.2z"/>
<path fill="#FFFFFF" d="M382,298.6h-29.2L301.5,61.9h31.6l34.2,190.4l34.6-190.4h31.2L382,298.6z"/>
<path fill="#FFFFFF" d="M646.6,298.6V61.9h28.6v211H738v25.6H646.6z"/>
</svg>